<?xml version="1.0" encoding="UTF-8"?>
<svg width="89px" height="117px" viewBox="0 0 89 117" version="1.1" xmlns="http://www.w3.org/2000/svg" xmlns:xlink="http://www.w3.org/1999/xlink">
    <!-- Generator: Sketch 58 (84663) - https://sketch.com -->
    <title>Puzzle-4</title>
    <desc>Created with Sketch.</desc>
    <g id="Page-1" stroke="none" stroke-width="1" fill="none" fill-rule="evenodd">
        <g id="puzzle-4" fill="#2DA377" fill-rule="nonzero">
            <path d="M74.7137895,13.9999975 C58.8741195,14.4839775 40.5986495,16.0136475 45.4403795,23.7580075 C49.5224095,30.2249575 51.1016495,41.7695075 36.0116395,41.4054975 C17.6133795,41.7695075 22.0705195,30.0802875 24.2257195,23.7580075 C28.7230495,13.9693175 16.0309395,13.7732575 5.71073946,14.3460175 C-4.09159054,13.7732575 -11.2574705,17.1240875 -12.6128405,27.2875075 C-13.8518705,36.5785575 -16.1385405,51.6309375 -9.31883054,51.6309375 C-3.42587054,51.6309375 7.42322946,45.6095375 7.42322946,60.1606175 C7.42322946,74.7573875 -10.2556605,62.5479375 -12.6128405,70.7834275 C-14.0606705,75.8418475 -14.3555505,80.5068875 -12.6128405,89.9188875 C-10.2369105,102.750798 1.37034946,102.009188 17.4966595,101.683878 C33.7078395,102.009188 7.26074946,80.0773975 33.9969495,80.5068875 C62.4545895,80.0773975 31.6982395,102.009188 51.6758395,102.860378 C68.4852795,103.080848 80.5758995,104.609328 80.6067495,88.7423875 C80.5758995,65.0666275 80.8640695,67.9866475 88.8568895,70.7834275 C97.5380595,74.0491975 103.000002,67.6916075 103.000002,57.8419375 C103.000002,42.8703475 96.0991095,43.3119475 88.8568895,46.0769475 C79.4156395,49.3402475 78.7653695,40.5957875 79.4281595,22.2354975 C79.4281595,22.2354975 83.0215495,14.4839775 74.7137895,13.9999975 Z" id="Puzzle-4" transform="translate(44.500001, 58.499999) rotate(-90.000000) translate(-44.500001, -58.499999) "></path>
        </g>
    </g>
</svg>