<?xml version="1.0"?>
<svg xmlns="http://www.w3.org/2000/svg" xmlns:xlink="http://www.w3.org/1999/xlink" xmlns:svgjs="http://svgjs.com/svgjs" version="1.1" width="512" height="512" x="0" y="0" viewBox="0 0 472 472" style="enable-background:new 0 0 512 512" xml:space="preserve" class=""><g>
<g xmlns="http://www.w3.org/2000/svg">
	<g>
		<g>
			<rect x="144" y="336.004" width="16" height="16" fill="#fff8f8" data-original="#000000" style="" class=""/>
			<path d="M0,376.004h120v16H72v48h160v-48h-48v-16h120v-208H0V376.004z M216,408.004v16H88v-16H216z M136,392.004v-16h32v16H136z      M16,184.004h272v128H16V184.004z M16,328.004h272v32H16V328.004z" fill="#fff8f8" data-original="#000000" style="" class=""/>
			<rect x="368" y="272.004" width="56" height="16" fill="#fff8f8" data-original="#000000" style="" class=""/>
			<rect x="368" y="240.004" width="56" height="16" fill="#fff8f8" data-original="#000000" style="" class=""/>
			<path d="M448,168.004H344c-13.255,0-24,10.745-24,24v224c0,13.255,10.745,24,24,24h104c13.255,0,24-10.745,24-24v-224     C472,178.749,461.255,168.004,448,168.004z M456,416.004c0,4.418-3.582,8-8,8H344c-4.418,0-8-3.582-8-8v-8h120V416.004z      M456,392.004H336v-168h120V392.004z M456,208.004H336v-16c0-4.418,3.582-8,8-8h104c4.418,0,8,3.582,8,8V208.004z" fill="#fff8f8" data-original="#000000" style="" class=""/>
			<path d="M424,304.004h-56v72h56V304.004z M408,360.004h-24v-40h24V360.004z" fill="#fff8f8" data-original="#000000" style="" class=""/>
			<path d="M237.6,78.5c41.248-40.662,107.504-40.662,148.752,0c1.505,1.484,3.535,2.312,5.648,2.304     c4.418-0.014,7.989-3.607,7.974-8.025c-0.007-2.128-0.861-4.166-2.374-5.663c-47.479-46.827-123.769-46.827-171.248,0     c-3.144,3.106-3.174,8.172-0.068,11.316C229.39,81.576,234.456,81.606,237.6,78.5z" fill="#fff8f8" data-original="#000000" style="" class=""/>
			<path d="M254.92,95.404c-3.09,3.158-3.036,8.223,0.122,11.313c3.085,3.019,8.007,3.047,11.126,0.063     c25.407-25.036,66.209-25.036,91.616,0c1.503,1.487,3.534,2.318,5.648,2.312c4.418-0.014,7.989-3.607,7.974-8.025     c-0.007-2.128-0.861-4.166-2.374-5.663C337.393,64.202,286.559,64.202,254.92,95.404z" fill="#fff8f8" data-original="#000000" style="" class=""/>
			<path d="M340.54,135.016c3.113-3.137,3.093-8.203-0.044-11.316c-15.797-15.596-41.195-15.596-56.992,0     c-3.137,3.113-3.157,8.179-0.044,11.316c3.113,3.137,8.179,3.157,11.316,0.044c9.681-9.097,24.767-9.097,34.448,0     C332.361,138.173,337.427,138.153,340.54,135.016z" fill="#fff8f8" data-original="#000000" style="" class=""/>
		</g>
	</g>
</g>
<g xmlns="http://www.w3.org/2000/svg">
</g>
<g xmlns="http://www.w3.org/2000/svg">
</g>
<g xmlns="http://www.w3.org/2000/svg">
</g>
<g xmlns="http://www.w3.org/2000/svg">
</g>
<g xmlns="http://www.w3.org/2000/svg">
</g>
<g xmlns="http://www.w3.org/2000/svg">
</g>
<g xmlns="http://www.w3.org/2000/svg">
</g>
<g xmlns="http://www.w3.org/2000/svg">
</g>
<g xmlns="http://www.w3.org/2000/svg">
</g>
<g xmlns="http://www.w3.org/2000/svg">
</g>
<g xmlns="http://www.w3.org/2000/svg">
</g>
<g xmlns="http://www.w3.org/2000/svg">
</g>
<g xmlns="http://www.w3.org/2000/svg">
</g>
<g xmlns="http://www.w3.org/2000/svg">
</g>
<g xmlns="http://www.w3.org/2000/svg">
</g>
</g></svg>
