<svg height="501pt" viewBox="-65 0 501 501.00235" width="501pt" xmlns="http://www.w3.org/2000/svg"><path d="m365.128906 246.039062c-33.4375-46.738281-33.71875-45.898437-33.71875-50.140624 0-7.082032 0-19.628907 0-26.199219 0-83.699219-62.101562-154.097657-143.101562-164.398438-134.347656-17.375-227.867188 126.996094-163.480469 241.820313 13.601563 24.257812 25.402344 49.519531 36.523437 75.019531 9.179688 21.039063 16.238282 35.480469 16.238282 60.339844-.101563.660156 2.019531 33.917969-21.960938 65.878906l-24.460937 32.640625c-4.957031 6.601562-.257813 16 8 16h174.601562c5.519531 0 10-4.480469 10-10 0-42-.019531-80.5-.019531-80.5 0-5.519531 4.480469-10 10-10h34.359375c9.21875 0 17.800781-4.738281 22.699219-12.539062 5.742187-11.300782 36.460937-46.082032 40.242187-106.242188l.359375-11.578125h23.378906c10.339844 0 16.359376-11.679687 10.339844-20.101563zm0 0" fill="#d8d6d7"/><path d="m365.128906 246.039062c-33.4375-46.738281-33.71875-45.898437-33.71875-50.140624 0-9.582032 0-18.085938 0-26.199219 0-83.699219-62.101562-154.097657-143.101562-164.398438-113.378906 14.039063-178.5 140.917969-121.917969 241.820313 13.597656 24.257812 25.398437 49.519531 36.519531 75.019531 9.179688 21.039063 16.238282 35.480469 16.238282 60.339844-.097657.660156 2.019531 33.917969-21.957032 65.878906l-24.460937 32.640625c-4.960938 6.601562-.242188 16 8 16h133.039062c5.519531 0 10-4.480469 10-10 0-42-.019531-80.5-.019531-80.5 0-5.519531 4.480469-10 10-10h34.359375c9.21875 0 17.800781-4.738281 22.699219-12.539062 5.742187-11.300782 36.460937-46.082032 40.242187-106.242188l.359375-11.578125h23.378906c10.339844 0 16.359376-11.679687 10.339844-20.101563zm0 0" fill="#fff"/><path d="m185.828125 280.140625c0 10.519531-8.523437 19.042969-19.039063 19.042969-10.515624 0-19.042968-8.523438-19.042968-19.042969v-9.628906h38.082031zm0 0" fill="#1c868e"/><path d="m231.492188 169.578125c0 27.570313-14.921876 51.425781-36.566407 62.679687-3.246093 1.6875-5.203125 5.117188-5.203125 8.773438v10.324219c0 5.261719-4.261718 9.527343-9.523437 9.527343h-26.824219c-5.257812 0-9.523438-4.265624-9.523438-9.527343v-10.324219c0-3.65625-1.960937-7.085938-5.203124-8.773438-21.648438-11.253906-36.566407-35.109374-36.566407-62.679687 0-38.453125 28.96875-69.632813 64.691407-69.632813 35.75 0 64.71875 31.179688 64.71875 69.632813zm0 0" fill="#f7c09a"/><path d="m189.722656 270.40625v.210938c0 5.257812-4.261718 9.523437-9.523437 9.523437h-26.824219c-5.257812 0-9.523438-4.261719-9.523438-9.523437v-.210938c0-5.261719 4.261719-9.527344 9.523438-9.527344h26.824219c5.257812 0 9.523437 4.265625 9.523437 9.527344zm0 0" fill="#40c4df"/><g fill="#491352"><path d="m368.382812 243.71875c-33.402343-47.371094-32.980468-44.597656-32.980468-48.027344.003906-30.015625.027344-28.175781-.066406-28.722656-1.453126-91.644531-75.472657-166.292969-166.3125-166.96484375-129.792969-.90234425-209.53125 138.79296875-147.695313 249.07031275 19.296875 34.410156 32.390625 66.144531 38.074219 78.589843 8.238281 18.792969 14.191406 32.367188 14.191406 54.820313 0 49.410156-31.476562 73.347656-45.636719 96.117187-6.917969 9.226563-.324219 22.402344 11.203125 22.402344h174.601563c7.71875 0 14-6.285156 14-14.003906 0-.203125-.003907-75.933594-.003907-80.496094 0-3.304687 2.667969-6 6-6h34.355469c20.136719 0 27.132813-16.449218 31.230469-22.675781 40.140625-60.96875 35.113281-104.722656 35.933594-107.6875h19.519531c13.578125 0 21.488281-15.375 13.585937-26.421875zm-13.585937 18.421875h-23.398437c-2.160157 0-3.929688 1.714844-3.996094 3.875-1.144532 4.363281 5.203125 46.746094-34.738282 107.410156-2.332031 3.535157-4.183593 6.351563-5.320312 8.550781-4.21875 6.589844-11.394531 10.523438-19.226562 10.523438-31.515626 1.101562-37.453126-2.707031-44.257813 4.101562-2.644531 2.644532-4.101563 6.160157-4.101563 9.902344h.113282c-.160156 1.609375-.113282-3.640625-.105469 80.492188 0 3.308594-2.691406 6.003906-6 6.003906h-174.605469c-4.945312 0-7.777344-5.632812-4.800781-9.601562 13.644531-22.089844 47.234375-48.117188 47.234375-100.917969 0-24.125-6.558594-39.089844-14.863281-58.03125-6.96875-15.253907-18.621094-43.988281-38.421875-79.289063-58.832032-104.925781 17.019531-238.054687 140.65625-237.15625 87.359375.644532 158.433594 73.175782 158.441406 161.6875.558594 29.902344-1.089844 30.207032 1.496094 32.296875.90625 1.792969-.402344-.378906 32.972656 46.382813 4.128906 5.773437.011719 13.769531-7.078125 13.769531zm0 0"/><path d="m166.773438 95.945312c-37.875 0-68.691407 33.03125-68.691407 73.632813 0 28 15.199219 54 38.71875 66.226563 7.175781 3.726562-1.515625 16.519531 6.984375 25.074218-5.152344 5.183594-5.34375 13.832032-.042968 19.21875v.042969c0 12.707031 10.339843 23.042969 23.042968 23.042969s23.042969-10.335938 23.042969-23.042969v-.042969c5.136719-5.222656 5.277344-13.867187-.039063-19.21875 8.386719-8.445312-.265624-21.308594 6.984376-25.074218 23.519531-12.230469 38.71875-38.226563 38.71875-66.226563 0-40.601563-30.828126-73.632813-68.71875-73.632813zm-14.488282 188.195313h29.003906c-4.054687 14.6875-24.953124 14.664063-29.003906 0zm33.4375-13.523437c0 3.046874-2.476562 5.523437-5.523437 5.523437h-26.824219c-3.046875 0-5.523438-2.476563-5.523438-5.523437v-.210938c0-3.046875 2.476563-5.527344 5.523438-5.527344h26.824219c3.042969 0 5.523437 2.476563 5.523437 5.527344zm7.359375-41.910157c-14.75 7.660157-.636719 28.171875-12.882812 28.171875h-26.824219c-12.292969 0 1.917969-20.480468-12.878906-28.171875-20.90625-10.867187-34.414063-34.078125-34.414063-59.128906 0-36.191406 27.226563-65.632813 60.695313-65.632813 33.476562 0 60.714844 29.441407 60.714844 65.632813 0 25.050781-13.507813 48.261719-34.410157 59.128906zm0 0"/><path d="m170.789062 76.773438v-35.402344c0-5.289063-8-5.292969-8 0v35.402344c0 5.289062 8 5.296874 8 0zm0 0"/><path d="m231.058594 56.246094c-25.359375 25.972656-26.203125 24.851562-26.203125 27.859375 0 3.5625 4.324219 5.335937 6.828125 2.828125 25.363281-25.976563 26.203125-24.851563 26.203125-27.859375 0-3.523438-4.296875-5.363281-6.828125-2.828125zm0 0"/><path d="m124.71875 88.105469c3.523438 0 5.359375-4.296875 2.828125-6.828125l-25.035156-25.03125c-3.753907-3.753906-9.351563 1.964844-5.652344 5.65625 25.96875 25.359375 24.847656 26.203125 27.859375 26.203125zm0 0"/></g></svg>