<svg id="Layer_1" height="512" viewBox="0 0 64 64" width="512" xmlns="http://www.w3.org/2000/svg" data-name="Layer 1"><path d="m5 13v36h54v-36a1 1 0 0 0 -1-1h-52a1 1 0 0 0 -1 1z" fill="#ccedff"/><g fill="#2199ea"><rect height="6" opacity=".2" rx="1" width="23" x="21" y="29"/><rect height="6" opacity=".2" rx="1" width="33" x="21" y="39"/><path d="m12 36a1 1 0 0 1 -.707-.293l-1.514-1.514a.688.688 0 0 1 0-.972l.442-.442a.688.688 0 0 1 .972 0l.207.207a.688.688 0 0 0 1.015-.046l3.376-4.052a.688.688 0 0 1 .969-.088l.48.4a.688.688 0 0 1 .088.969l-4.559 5.471a1 1 0 0 1 -.724.359z" opacity=".2"/><path d="m12 46a1 1 0 0 1 -.707-.293l-1.514-1.514a.688.688 0 0 1 0-.972l.442-.442a.688.688 0 0 1 .972 0l.207.207a.688.688 0 0 0 1.015-.046l3.376-4.052a.688.688 0 0 1 .969-.088l.48.4a.688.688 0 0 1 .088.969l-4.559 5.471a1 1 0 0 1 -.724.359z" opacity=".2"/><path d="m14.859 24a1 1 0 0 1 -.832-.445l-.6-.894a.688.688 0 0 0 -1.144 0l-.6.894a1 1 0 0 1 -1.804-.355l-.866-4.325a.689.689 0 0 1 .54-.81l.612-.122a.687.687 0 0 1 .809.539l.067.331a.687.687 0 0 0 1.246.247.687.687 0 0 1 1.144 0 .688.688 0 0 0 1.247-.247l.066-.331a.687.687 0 0 1 .809-.539l.612.122a.689.689 0 0 1 .54.81l-.865 4.325a1 1 0 0 1 -.787.785.981.981 0 0 1 -.194.015z" opacity=".2"/><path d="m32.859 24a1 1 0 0 1 -.832-.445l-.6-.894a.688.688 0 0 0 -1.144 0l-.6.894a1 1 0 0 1 -1.812-.359l-.866-4.325a.689.689 0 0 1 .54-.81l.612-.122a.687.687 0 0 1 .809.539l.067.331a.687.687 0 0 0 1.246.247.687.687 0 0 1 1.144 0 .688.688 0 0 0 1.247-.247l.066-.331a.687.687 0 0 1 .809-.539l.612.122a.689.689 0 0 1 .54.81l-.857 4.329a1 1 0 0 1 -.787.785.981.981 0 0 1 -.194.015z" opacity=".2"/><path d="m23.859 24a1 1 0 0 1 -.832-.445l-.6-.894a.688.688 0 0 0 -1.144 0l-.6.894a1 1 0 0 1 -1.812-.359l-.866-4.325a.689.689 0 0 1 .54-.81l.612-.122a.687.687 0 0 1 .809.539l.067.331a.687.687 0 0 0 1.246.247.687.687 0 0 1 1.144 0 .688.688 0 0 0 1.247-.247l.066-.331a.687.687 0 0 1 .809-.539l.612.122a.689.689 0 0 1 .54.81l-.857 4.329a1 1 0 0 1 -.787.785.981.981 0 0 1 -.194.015z" opacity=".2"/><circle cx="36.859" cy="23" opacity=".2" r="1"/><circle cx="40.859" cy="23" opacity=".2" r="1"/><circle cx="44.859" cy="23" opacity=".2" r="1"/></g><path d="m7.523 49h5l34.477-37h-5z" fill="#fff" opacity=".4"/><path d="m16.523 49h5l34.477-37h-5z" fill="#fff" opacity=".4"/><path d="m4 53h56a2 2 0 0 0 2-2v-2h-60v2a2 2 0 0 0 2 2z" fill="#2199ea"/><rect fill="#ffa154" height="6" rx="1" width="23" x="20" y="28"/><rect fill="#ffa154" height="6" rx="1" width="33" x="20" y="38"/><path d="m60 51h-56a2 2 0 0 1 -2-2v2a2 2 0 0 0 2 2h56a2 2 0 0 0 2-2v-2a2 2 0 0 1 -2 2z" fill="#148cde"/><rect fill="#ffcea1" height="2" rx="1" width="12" x="22" y="31"/><circle cx="36" cy="32" fill="#ffcea1" r="1"/><rect fill="#ffcea1" height="2" rx="1" width="12" x="22" y="41"/><circle cx="36" cy="42" fill="#ffcea1" r="1"/><path d="m14 24a1 1 0 0 1 -.832-.445l-.6-.894a.688.688 0 0 0 -1.144 0l-.6.894a1 1 0 0 1 -1.804-.355l-.866-4.325a.689.689 0 0 1 .54-.81l.612-.122a.687.687 0 0 1 .809.539l.066.331a.688.688 0 0 0 1.247.247.687.687 0 0 1 1.144 0 .688.688 0 0 0 1.247-.247l.066-.331a.687.687 0 0 1 .809-.539l.612.122a.689.689 0 0 1 .54.81l-.866 4.325a1 1 0 0 1 -.786.785.989.989 0 0 1 -.194.015z" fill="#fff"/><path d="m32 24a1 1 0 0 1 -.832-.445l-.6-.894a.688.688 0 0 0 -1.144 0l-.6.894a1 1 0 0 1 -1.804-.355l-.866-4.325a.689.689 0 0 1 .54-.81l.612-.122a.687.687 0 0 1 .809.539l.066.331a.688.688 0 0 0 1.247.247.687.687 0 0 1 1.144 0 .688.688 0 0 0 1.247-.247l.066-.331a.687.687 0 0 1 .809-.539l.612.122a.689.689 0 0 1 .54.81l-.866 4.325a1 1 0 0 1 -.786.785.989.989 0 0 1 -.194.015z" fill="#fff"/><path d="m23 24a1 1 0 0 1 -.832-.445l-.6-.894a.688.688 0 0 0 -1.144 0l-.6.894a1 1 0 0 1 -1.804-.355l-.866-4.325a.689.689 0 0 1 .54-.81l.612-.122a.687.687 0 0 1 .809.539l.066.331a.688.688 0 0 0 1.247.247.687.687 0 0 1 1.144 0 .688.688 0 0 0 1.247-.247l.066-.331a.687.687 0 0 1 .809-.539l.612.122a.689.689 0 0 1 .54.81l-.866 4.325a1 1 0 0 1 -.786.785.989.989 0 0 1 -.194.015z" fill="#fff"/><path d="m11 35a1 1 0 0 1 -.707-.293l-1.514-1.514a.688.688 0 0 1 0-.972l.442-.442a.688.688 0 0 1 .972 0l.207.207a.688.688 0 0 0 1.015-.046l3.376-4.052a.688.688 0 0 1 .969-.088l.48.4a.688.688 0 0 1 .088.969l-4.559 5.471a1 1 0 0 1 -.724.359z" fill="#ffa154"/><path d="m11 45a1 1 0 0 1 -.707-.293l-1.514-1.514a.688.688 0 0 1 0-.972l.442-.442a.688.688 0 0 1 .972 0l.207.207a.688.688 0 0 0 1.015-.046l3.376-4.052a.688.688 0 0 1 .969-.088l.48.4a.688.688 0 0 1 .088.969l-4.559 5.471a1 1 0 0 1 -.724.359z" fill="#ffa154"/><circle cx="32" cy="15" fill="#148cde" r="1"/><circle cx="36" cy="23" fill="#fff" r="1"/><circle cx="40" cy="23" fill="#fff" r="1"/><circle cx="44" cy="23" fill="#fff" r="1"/></svg>