<?xml version="1.0" encoding="iso-8859-1"?>
<!-- Generator: Adobe Illustrator 16.0.0, SVG Export Plug-In . SVG Version: 6.00 Build 0)  -->
<!DOCTYPE svg PUBLIC "-//W3C//DTD SVG 1.1//EN" "http://www.w3.org/Graphics/SVG/1.1/DTD/svg11.dtd">
<svg version="1.1" id="Capa_1" xmlns="http://www.w3.org/2000/svg" xmlns:xlink="http://www.w3.org/1999/xlink" x="0px" y="0px"
	 width="33.182px" height="33.182px" viewBox="0 0 33.182 33.182" style="enable-background:new 0 0 33.182 33.182;"
	 xml:space="preserve">
<g>
	<g>
		<path d="M25.591,4.091c0-3.02-4.85-4.091-9-4.091c-4.151,0-9,1.071-9,4.091c0,3.467,4.048,9.963,6.531,12.5
			c-2.483,2.537-6.531,9.033-6.531,12.5c0,3.021,4.849,4.091,9,4.091c4.15,0,9-1.072,9-4.091c0-3.467-4.048-9.963-6.531-12.5
			C21.543,14.054,25.591,7.558,25.591,4.091z M24.591,29.091c0,2.062-4,3.091-8,3.091s-8-1.031-8-3.091
			c0-3.647,5.144-11.278,7.05-12.5c-1.906-1.221-7.05-8.852-7.05-12.5c0-2.061,4-3.091,8-3.091s8,1.031,8,3.091
			c0,3.648-5.145,11.279-7.05,12.5C19.446,17.812,24.591,25.443,24.591,29.091z"/>
		<path d="M10.527,29.957c0,0.186,2.085,0.725,6.064,0.725c3.979,0,6.064-0.539,6.064-0.725c0-2.752-6.064-4.647-6.064-9.575
			C16.591,25.31,10.527,27.102,10.527,29.957z"/>
		<path d="M16.474,15.352l0.117,1.066l0.117-1.066c1.188-0.67,5.275-5.955,5.275-8.221c0-0.299-1.854-1.165-5.394-1.165
			s-5.394,0.865-5.394,1.165C11.197,9.397,15.286,14.682,16.474,15.352z"/>
	</g>
</g>
<g>
</g>
<g>
</g>
<g>
</g>
<g>
</g>
<g>
</g>
<g>
</g>
<g>
</g>
<g>
</g>
<g>
</g>
<g>
</g>
<g>
</g>
<g>
</g>
<g>
</g>
<g>
</g>
<g>
</g>
</svg>
