<?xml version="1.0"?>
<svg xmlns="http://www.w3.org/2000/svg" xmlns:xlink="http://www.w3.org/1999/xlink" xmlns:svgjs="http://svgjs.com/svgjs" version="1.1" width="512" height="512" x="0" y="0" viewBox="0 0 512 512" style="enable-background:new 0 0 512 512" xml:space="preserve"><g>
<g xmlns="http://www.w3.org/2000/svg">
	<g>
		<path d="M366.682,318.621L258.464,280.98c-1.596-0.555-3.332-0.555-4.928,0l-77.821,27.068c-3.912,1.361-5.98,5.635-4.62,9.548    c1.361,3.912,5.636,5.981,9.547,4.62L256,296.005l100.351,34.904c-0.894,9.69-3.893,31.508-13.777,57.381    c-11.92,31.202-36.569,74.777-86.574,107.32c-50.005-32.542-74.654-76.118-86.574-107.319    c-13.346-34.936-14.14-62.479-14.146-62.753c-0.091-4.083-3.429-7.333-7.495-7.333c-0.053,0-0.107,0-0.162,0.002    c-4.141,0.087-7.427,3.516-7.34,7.657c0.026,1.206,0.787,29.951,14.908,67.196c13.024,34.351,40.398,82.674,96.845,117.808    C253.25,511.623,254.625,512,256,512s2.75-0.377,3.963-1.133c56.447-35.134,83.821-83.457,96.845-117.808    c14.121-37.245,14.882-65.99,14.908-67.196C371.786,322.614,369.753,319.689,366.682,318.621z" fill="#ffffff" data-original="#000000" style=""/>
	</g>
</g>
<g xmlns="http://www.w3.org/2000/svg">
	<g>
		<path d="M304.826,360.984c-2.929-2.929-7.678-2.929-10.606,0l-46.453,46.453l-27.633-27.632c-2.929-2.929-7.678-2.929-10.606,0    c-2.929,2.929-2.929,7.678,0,10.606l32.936,32.936c1.464,1.464,3.384,2.196,5.303,2.196s3.839-0.732,5.303-2.197l51.756-51.756    C307.755,368.661,307.755,363.913,304.826,360.984z" fill="#ffffff" data-original="#000000" style=""/>
	</g>
</g>
<g xmlns="http://www.w3.org/2000/svg">
	<g>
		<path d="M389.505,254.246l-60.744-30.372c-5.643-2.821-9.148-8.493-9.148-14.801v-29.078    c15.192-16.087,24.048-37.621,24.048-60.269V71.629C343.661,32.133,304.336,0,256,0s-87.661,32.133-87.661,71.629v48.097    c0,22.645,8.856,44.18,24.048,60.268v29.079c0,6.309-3.505,11.98-9.148,14.801l-60.744,30.372    c-16.224,8.112-26.302,24.419-26.302,42.557v47.374c0,12.976,10.557,23.532,23.532,23.532c4.142,0,7.5-3.358,7.5-7.5    c0-4.142-3.358-7.5-7.5-7.5c-4.705,0-8.532-3.828-8.532-8.532v-47.374c0-12.42,6.901-23.586,18.01-29.141l60.744-30.372    c10.757-5.378,17.44-16.191,17.44-28.218v-16.395c1.544,1.032,3.125,2.021,4.744,2.958c1.183,0.685,2.476,1.011,3.751,1.011    c2.588,0,5.107-1.342,6.497-3.743c2.076-3.585,0.853-8.173-2.732-10.249c-22.396-12.968-36.309-37.082-36.309-62.929V71.629    C183.339,40.404,215.935,15,256,15s72.661,25.404,72.661,56.629v48.097c0,25.859-13.922,49.978-36.333,62.943    c-3.585,2.074-4.81,6.662-2.736,10.248c1.39,2.403,3.909,3.745,6.499,3.745c1.275,0,2.566-0.325,3.749-1.009    c1.629-0.943,3.219-1.937,4.772-2.974v16.394c0,12.027,6.683,22.839,17.44,28.218l60.744,30.372    c11.109,5.554,18.01,16.721,18.01,29.141v47.374c0,4.705-3.828,8.532-8.532,8.532c-4.142,0-7.5,3.358-7.5,7.5    c0,4.142,3.358,7.5,7.5,7.5c12.976,0,23.532-10.556,23.532-23.532v-47.374C415.807,278.665,405.729,262.358,389.505,254.246z" fill="#ffffff" data-original="#000000" style=""/>
	</g>
</g>
<g xmlns="http://www.w3.org/2000/svg">
</g>
<g xmlns="http://www.w3.org/2000/svg">
</g>
<g xmlns="http://www.w3.org/2000/svg">
</g>
<g xmlns="http://www.w3.org/2000/svg">
</g>
<g xmlns="http://www.w3.org/2000/svg">
</g>
<g xmlns="http://www.w3.org/2000/svg">
</g>
<g xmlns="http://www.w3.org/2000/svg">
</g>
<g xmlns="http://www.w3.org/2000/svg">
</g>
<g xmlns="http://www.w3.org/2000/svg">
</g>
<g xmlns="http://www.w3.org/2000/svg">
</g>
<g xmlns="http://www.w3.org/2000/svg">
</g>
<g xmlns="http://www.w3.org/2000/svg">
</g>
<g xmlns="http://www.w3.org/2000/svg">
</g>
<g xmlns="http://www.w3.org/2000/svg">
</g>
<g xmlns="http://www.w3.org/2000/svg">
</g>
</g></svg>
