<?xml version="1.0" encoding="UTF-8"?>
<svg width="135px" height="117px" viewBox="0 0 135 117" version="1.1" xmlns="http://www.w3.org/2000/svg" xmlns:xlink="http://www.w3.org/1999/xlink">
    <!-- Generator: Sketch 58 (84663) - https://sketch.com -->
    <title>Puzzle-3</title>
    <desc>Created with Sketch.</desc>
    <g id="Page-1" stroke="none" stroke-width="1" fill="none" fill-rule="evenodd">
        <g id="puzzle-3" fill="#007BCA" fill-rule="nonzero">
            <path d="M29.6790713,68.2929484 C16.6186063,72.9858684 9.00000133,68.8372584 9.00000133,56.8622984 C9.00000133,44.8873384 16.7916743,43.3990984 28.0465133,45.9759684 C34.0325593,47.3465084 29.6790713,36.7225884 30.7674433,27.4692084 C31.8558153,18.2158284 33.5809983,18.5033484 47.3399643,19.0790284 C50.2811643,18.5033484 64.8812073,16.8327884 62.0547553,11.4211084 C58.1011813,6.06808839 54.1048573,-9.00000161 73.5153133,-9.00000161 C96.5240583,-9.00000161 87.0606993,7.55073839 84.9758713,12.6974284 C82.4805973,18.0841584 101.610959,17.6897484 106.046755,17.8027084 C117.332016,17.6133484 125.621673,15.2675384 125.147685,29.2895884 C125.621673,43.7600084 125.765057,47.6875784 114.960523,44.6054284 C103.509776,42.3021384 99.5236943,49.8661284 99.6797783,59.9212584 C99.8350433,69.5886584 105.42498,73.6628484 116.233918,70.1318184 C127.911724,66.4354484 129.030121,97.4595784 120.054104,96.9345284 C102.940336,97.4595784 79.7446823,96.9050284 84.9758713,105.306468 C89.3862473,112.322108 89.8191243,126.385388 73.5153133,125.990498 C53.6371383,126.385388 59.7261953,114.379158 62.0547553,107.520458 C66.9138423,96.9012484 62.1798823,98.1533184 51.0295463,98.7746684 C40.4387363,98.1533184 32.9441873,103.129198 30.7674433,91.6985584 C28.5906993,80.2679084 36.5692003,65.8171584 29.6790713,68.2929484 Z" id="Puzzle-3" transform="translate(67.500001, 58.500000) rotate(-90.000000) translate(-67.500001, -58.500000) "></path>
        </g>
    </g>
</svg>