<?xml version="1.0" encoding="UTF-8"?>
<svg width="92px" height="131px" viewBox="0 0 92 131" version="1.1" xmlns="http://www.w3.org/2000/svg" xmlns:xlink="http://www.w3.org/1999/xlink">
    <!-- Generator: Sketch 58 (84663) - https://sketch.com -->
    <title>Puzzle-2</title>
    <desc>Created with Sketch.</desc>
    <g id="Page-1" stroke="none" stroke-width="1" fill="none" fill-rule="evenodd">
        <g id="puzzle-2" fill="#A23EFF" fill-rule="nonzero">
            <path d="M82.2566923,20.0000007 C66.1610663,20.4948607 47.5902633,22.0589007 52.5102353,29.9772907 C56.6582273,36.5895607 58.2629883,48.3935407 42.9291333,48.0213607 C24.2335613,48.3935407 28.7627273,36.4416507 30.9527553,29.9772907 C35.5227623,19.9686307 22.6255563,19.7681707 12.1385823,20.3537907 C2.17784627,19.7681707 2.90798427,23.1604707 3.75511727,33.5861107 C4.30661227,40.5871507 8.16536127,59.8482207 -2.23307173,53.8238207 C-7.79941773,51.3353407 -19.0000007,52.1780607 -19.0000007,67.0561307 C-19.0000007,81.9809207 -6.33336373,78.2305007 1.35984227,75.4767007 C7.58163627,74.0110407 3.63812227,89.0375407 3.75511727,97.6249307 C3.63812227,110.874411 7.72804927,109.986931 24.1149603,109.654301 C40.5881003,109.986931 13.7136373,87.5622907 40.8818893,88.0014307 C69.7993893,87.5622907 38.5460263,109.986931 58.8464563,110.857241 C75.9275373,111.082661 88.2135373,112.645501 88.2448813,96.4219907 C88.2135373,72.2142007 88.5063633,75.1998307 96.6283453,78.0594707 C105.449796,81.3986207 110.999999,74.8981607 110.999999,64.8271507 C110.999999,49.5191207 103.987594,49.9706507 96.6283453,52.7977807 C87.0345283,56.1344107 86.3737443,47.1934507 87.0472433,28.4205607 C87.0472433,28.4205607 90.6987023,20.4948607 82.2566923,20.0000007 Z" id="Puzzle-2" transform="translate(45.999999, 65.500000) rotate(-90.000000) translate(-45.999999, -65.500000) "></path>
        </g>
    </g>
</svg>