<svg height="505pt" viewBox="0 0 505.03218 505" width="505pt" xmlns="http://www.w3.org/2000/svg"><path d="m501.03125 252.527344c0 129.402344-98.9375 235.742187-225.320312 247.441406-1.058594.097656-2.140626.199219-3.199219.28125-6.601563.539062-13.257813.796875-20 .796875-137.238281 0-248.519531-111.277344-248.519531-248.519531 0-137.238282 111.28125-248.519532 248.519531-248.519532 6.742187 0 13.398437.261719 20 .800782 1.058593.078125 2.140625.179687 3.199219.28125 126.382812 11.699218 225.320312 118.039062 225.320312 247.4375zm0 0" fill="#1c868e"/><path d="m501.03125 252.527344c0 129.402344-98.9375 235.742187-225.320312 247.441406-136.777344-11.699219-243.859376-118.039062-243.859376-247.441406 0-129.398438 107.082032-235.738282 243.859376-247.4375 126.382812 11.699218 225.320312 118.039062 225.320312 247.4375zm0 0" fill="#40c4df"/><path d="m252.511719 360.21875s-1.074219-140.234375 171.917969-137.019531c6.109374.113281 10.636718 5.707031 9.582031 11.730469-6.808594 38.933593-39.859375 162.835937-181.5 125.289062zm0 0" fill="#7befe4"/><path d="m251.058594 251.726562s1.074218-140.234374-171.917969-137.019531c-6.109375.113281-10.636719 5.710938-9.582031 11.730469 6.808594 38.933594 39.855468 162.835938 181.5 125.289062zm0 0" fill="#7befe4"/><path d="m252.511719.015625c-139.234375 0-252.511719 113.277344-252.511719 252.511719 0 65.414062 25.003906 125.09375 65.953125 169.992187.085937.152344.167969.3125.28125.457031.269531.351563.597656.625.949219.863282 46.160156 49.898437 112.152344 81.199218 185.332031 81.199218 73.199219 0 139.214844-31.320312 185.378906-81.253906.804688-.539062 1.03125-.957031 1.246094-1.339844 146.625-160.902343 32.824219-422.429687-186.628906-422.429687zm-14.488281 8.441406c-39.101563 26.40625-70.886719 63.886719-92.578126 109.320313-6.285156-1.628906-12.816406-2.972656-19.578124-4.042969-18.027344-8.234375-34.960938-18.203125-50.4375-29.636719 41.453124-43.566406 98.773437-71.890625 162.59375-75.640625zm-76.425782 154.695313 8.527344 25.222656-49.671875-35.851562c-4.289063-3.101563-8.976563 3.382812-4.683594 6.484374l22.777344 16.441407-26.15625-1.488281c-5.285156-.296876-5.738281 7.6875-.457031 7.984374 50.90625 2.894532 35.800781 2.136719 38.65625 2.195313l43.105468 31.117187-29.589843 10.003907c-4.957031 1.671875-2.511719 9.289062 2.558593 7.578125l34.996094-11.832032 40.003906 28.875c-41.109374 9.296876-75.960937 5.082032-103.652343-12.636718-45.746094-29.273438-60.359375-87.726563-64.515625-111.5-.621094-3.550782 2.011718-6.96875 5.714844-7.039063 89.703124-1.675781 158.316406 39.257813 167.304687 124.808594l-65.222656-47.078125-12.117188-35.847656c-1.695312-5.007813-9.277343-2.453125-7.578125 2.5625zm-20.132812 85.375h-18.039063c.050781-3.910156.171875-7.800782.363281-11.675782 5.691407 4.542969 11.25 8.242188 17.675782 11.675782zm-71.476563-158.503906c10.433594 7.753906 21.511719 14.855468 33.132813 21.230468-7.761719-.492187-15.761719-.699218-24.054688-.542968-8.546875.15625-14.925781 7.96875-13.449218 16.414062 3.761718 21.523438 15.808593 70.300781 50.519531 103.082031-.421875 6.03125-.671875 12.167969-.746094 18.324219h-107.339844c.980469-60.765625 24.230469-116.207031 61.9375-158.507812zm-61.9375 166.503906h107.351563c.503906 42.097656 8.976562 82.445312 25.210937 120.066406-25.472656 9.691406-49.167969 22.628906-70.554687 38.519531-37.75-42.3125-61.027344-97.785156-62.007813-158.585937zm67.449219 164.511718c20.742188-15.316406 43.710938-27.789062 68.394531-37.140624 21.46875 46.300781 54.542969 85.75 94.300781 112.710937-63.847656-3.707031-121.207031-32.007813-162.695312-75.570313zm173.011719 72.789063c-40.984375-26.054687-75.160157-65.714844-97.078125-112.699219 30.917968-10.777344 63.53125-16.441406 97.078125-16.859375zm0-137.558594c-34.695313.421875-68.425781 6.316407-100.386719 17.542969-15.910156-36.722656-24.21875-76.140625-24.722656-117.285156h36.929687c12.726563 4.117187 26.460938 6.191406 41.164063 6.191406 22.945312 0 40.867187-5.015625 47.015625-6.191406zm0-142.972656c-8.28125-26.730469-23.601563-50.558594-46.503907-68.460937 15.292969 2.429687 30.859376 3.746093 46.503907 3.9375zm0-72.523437c-21.550781-.269532-42.9375-2.714844-63.640625-7.320313-9.667969-5.46875-20.210938-9.953125-31.613282-13.457031 22.171876-45.894532 54.9375-83.335938 95.253907-108.851563zm248.460937 107.753906h-61.683594c1.160157-4.925782 2.03125-9.308594 2.664063-12.910156 1.480469-8.457032-4.90625-16.257813-13.449219-16.417969-12.785156-.238281-24.902344.335937-36.414062 1.625-3.152344-32.214844-11.089844-63.246094-23.628906-92.371094 25.511718-9.730469 49.191406-22.664063 70.503906-38.511719 37.75 42.316406 61.027344 97.785156 62.007812 158.585938zm-235.070312 109.847656 40.003906-28.875c36.769531 12.351562 35.0625 12.042969 36.277344 12.042969 4.523437 0 5.53125-6.355469 1.28125-7.789063l-29.589844-10.003906 43.105469-31.117188c3.179687-.078124-11.042969.632813 38.65625-2.195312 5.273437-.296875 4.832031-8.285156-.453125-7.984375l-26.15625 1.488281 22.773437-16.4375c4.285157-3.09375-.375-9.585937-4.683593-6.488281l-49.671876 35.851563 8.527344-25.222657c1.691406-5.007812-5.878906-7.582031-7.578125-2.5625l-12.117187 35.847657-65.238282 47.085937c7.449219-71.707031 61.1875-126.746094 167.316407-124.816406 3.707031.070312 6.339843 3.488281 5.714843 7.039062-4.160156 23.773438-18.769531 82.226563-64.515624 111.5-27.6875 17.71875-62.535157 21.9375-103.652344 12.636719zm102.011718-2.359375c-2.140624 6.003906-4.488281 11.941406-7.011718 17.785156-7.023438-2.453125-14.128906-4.65625-21.300782-6.59375 10.03125-2.527343 19.476563-6.257812 28.3125-11.191406zm65.609376-272c-20.675782 15.277344-43.628907 27.753906-68.359376 37.136719-21.433593-46.300782-54.476562-85.746094-94.207031-112.699219 63.800781 3.738281 121.105469 32.03125 162.566407 75.5625zm-173.011719-72.863281c41.019531 26.046875 75.214843 65.734375 97.117187 112.773437-30.980468 10.777344-63.609375 16.441407-97.117187 16.859375zm0 137.632812c34.652343-.421875 68.398437-6.316406 100.433593-17.546875 12.339844 28.546875 20.136719 58.988281 23.203126 90.609375-28.152344 4.128906-52.25 13.03125-72.046876 26.679688h-51.589843zm0 107.742188h41.164062c-19.605469 16.550781-33.082031 37.320312-41.164062 60.820312zm0 108.816406c19.15625 4.648438 39.054687 7.058594 58.914062 5.265625 12.851563 2.617187 25.65625 6.175781 38.167969 10.515625-21.929688 46.992188-56.105469 86.652344-97.082031 112.703125zm10.3125 131.265625c39.761719-26.964844 72.84375-66.425781 94.320312-112.75 24.742188 9.359375 47.71875 21.828125 68.433594 37.117187-41.488281 43.597657-98.871094 71.925782-162.753906 75.632813zm168.199219-81.558594c-21.359376-15.867187-45.066407-28.792969-70.597657-38.503906 3.847657-8.9375 7.289063-18.097656 10.246094-27.328125 34.480469-24.589844 50.949219-64.671875 58.589844-92.691406h63.710937c-.980468 60.769531-24.238281 116.21875-61.949218 158.523437zm0 0" fill="#491352"/></svg>