<svg id="Layer_1" height="512" viewBox="0 0 64 64" width="512" xmlns="http://www.w3.org/2000/svg" data-name="Layer 1"><path d="m6 20h52a1 1 0 0 1 1 1v37a0 0 0 0 1 0 0h-54a0 0 0 0 1 0 0v-37a1 1 0 0 1 1-1z" fill="#ccedff"/><path d="m5 21v37h4v-33a1 1 0 0 1 1-1h44a1 1 0 0 1 1 1v33h4v-37a1 1 0 0 0 -1-1h-52a1 1 0 0 0 -1 1z" fill="#bde8ff"/><path d="m14 56.586h38a1 1 0 0 0 0-2h-4v-23h-6v23h-6v-15h-6v15h-6v-10h-6v10h-4a1 1 0 0 0 0 2z" fill="#2199ea" opacity=".2"/><path d="m43.44 20h-8.251a22.69 22.69 0 0 1 -19.961 7.382l-.228-.03v13.234l4.228-.564a29.672 29.672 0 0 0 24.212-20.022z" fill="#2199ea" opacity=".2"/><path d="m17 43h6v11h-6z" fill="#fc4949"/><path d="m29 38h6v16h-6z" fill="#fc4949"/><path d="m41 30h6v24h-6z" fill="#fc4949"/><path d="m41.293 3.707-5.586 5.586a1 1 0 0 0 .707 1.707h.737a1.006 1.006 0 0 1 .918 1.412 22.766 22.766 0 0 1 -23.841 13.388l-.228-.034v13.234l4.228-.564a29.692 29.692 0 0 0 25.622-26.523 1 1 0 0 1 .991-.913h2.745a1 1 0 0 0 .707-1.707l-5.586-5.586a1 1 0 0 0 -1.414 0z" fill="#ffa154"/><path d="m48 9h-5.159a1 1 0 0 0 -.991.913 29.692 29.692 0 0 1 -25.622 26.523l-2.228.3v2.264l4.228-.564a29.692 29.692 0 0 0 25.622-26.523 1 1 0 0 1 .991-.913h2.745a1 1 0 0 0 .707-1.707z" fill="#f77f1b"/><path d="m20 43v5a3 3 0 0 1 -3 3v3h6v-11z" fill="#f93232"/><path d="m32 38v10a3 3 0 0 1 -3 3v3h6v-16z" fill="#f93232"/><path d="m44 30v18a3 3 0 0 1 -3 3v3h6v-24z" fill="#f93232"/><path d="m4 62h56a2 2 0 0 0 2-2v-2h-60v2a2 2 0 0 0 2 2z" fill="#2199ea"/><path d="m60 60h-56a2 2 0 0 1 -2-2v2a2 2 0 0 0 2 2h56a2 2 0 0 0 2-2v-2a2 2 0 0 1 -2 2z" fill="#148cde"/><rect fill="#fff" height="2" rx="1" width="40" x="12" y="53"/><g fill="#fc4949"><path d="m27 2h2v2h-2z"/><path d="m29 4h2v2h-2z"/><path d="m27 6h2v2h-2z"/><path d="m25 4h2v2h-2z"/><path d="m23 10h2v2h-2z"/><path d="m60 12h2v2h-2z"/><path d="m58 14h2v2h-2z"/><path d="m56 12h2v2h-2z"/><path d="m58 10h2v2h-2z"/><path d="m54 6h2v2h-2z"/></g></svg>