<svg id="Layer_1" height="512" viewBox="0 0 64 64" width="512" xmlns="http://www.w3.org/2000/svg" data-name="Layer 1"><rect fill="#d6d6d6" height="60" rx="3" width="32" x="16" y="2"/><rect fill="#fff" height="50" rx="1" width="24" x="20" y="8"/><path d="m45 60h-26a3 3 0 0 1 -3-3v2a3 3 0 0 0 3 3h26a3 3 0 0 0 3-3v-2a3 3 0 0 1 -3 3z" fill="#cfcfcf"/><path d="m43 8h-22a1 1 0 0 0 -1 1v48a1 1 0 0 0 1 1h22a1 1 0 0 0 1-1v-48a1 1 0 0 0 -1-1zm-1 47a1 1 0 0 1 -1 1h-18a1 1 0 0 1 -1-1v-44a1 1 0 0 1 1-1h18a1 1 0 0 1 1 1z" fill="#bde8ff"/><circle cx="32" cy="20" fill="#ffb26c" r="8"/><path d="m32 12a8 8 0 1 0 8 8 8 8 0 0 0 -8-8zm0 14a6 6 0 1 1 6-6 6 6 0 0 1 -6 6z" fill="#ffa154"/><circle cx="53" cy="48" fill="#ffb26c" r="8"/><path d="m53 40a8 8 0 1 0 8 8 8 8 0 0 0 -8-8zm0 14a6 6 0 1 1 6-6 6 6 0 0 1 -6 6z" fill="#ffa154"/><path d="m57.455 6.947-6.029 3.778a1 1 0 0 0 .206 1.793l1.406.482h-.038l-6.665 18.091a1 1 0 0 1 -1.255.6l-4.687-1.562a1 1 0 0 0 -.763.054l-8.685 4.342a1 1 0 0 0 -.421 1.391l2.826 4.945a1 1 0 0 0 1.576.211l4.686-4.686a1 1 0 0 1 .924-.269l7.6 1.69a1 1 0 0 0 1.158-.637l7.823-21.731a1 1 0 0 1 1.266-.607l.872.3a1 1 0 0 0 1.3-1.189l-1.6-6.392a1 1 0 0 0 -1.5-.604z" fill="#2199ea"/><path d="m28.728 43.5 1.418-.32a.975.975 0 0 0 .736-1.166l-.452-2a.974.974 0 0 0 -1.165-.736l-1.418.32a.961.961 0 0 1 -1.062-.52 10.966 10.966 0 0 0 -1.765-2.5.992.992 0 0 1 -.139-1.213l.766-1.211a.976.976 0 0 0 -.3-1.345l-1.734-1.095a.974.974 0 0 0 -1.344.3l-.769 1.212a.994.994 0 0 1 -1.155.4 10.906 10.906 0 0 0 -3.017-.52.961.961 0 0 1 -.926-.736l-.32-1.418a.974.974 0 0 0 -1.165-.736l-2 .452a.974.974 0 0 0 -.736 1.165l.321 1.418a.963.963 0 0 1 -.52 1.063 10.882 10.882 0 0 0 -2.5 1.765.993.993 0 0 1 -1.213.138l-1.212-.765a.973.973 0 0 0 -1.344.3l-1.1 1.734a.973.973 0 0 0 .3 1.344l1.212.766a.992.992 0 0 1 .4 1.154 10.941 10.941 0 0 0 -.519 3.017.961.961 0 0 1 -.736.926l-1.418.32a.974.974 0 0 0 -.736 1.165l.452 2a.974.974 0 0 0 1.165.736l1.418-.32a.959.959 0 0 1 1.062.52 10.987 10.987 0 0 0 1.765 2.5.99.99 0 0 1 .139 1.212l-.764 1.214a.975.975 0 0 0 .3 1.344l1.734 1.1a.975.975 0 0 0 1.344-.3l1.187-1.884 2.5-3.489a7 7 0 1 1 4.782-.591l2.812 3.08a10.925 10.925 0 0 0 1.511-1.191.986.986 0 0 1 1.206-.138l1.216.768a.974.974 0 0 0 1.344-.3l1.095-1.739a.974.974 0 0 0 -.3-1.344l-1.215-.756a.993.993 0 0 1 -.4-1.155 10.941 10.941 0 0 0 .519-3.017.96.96 0 0 1 .74-.928z" fill="#2199ea"/><path d="m39.612 36.388.388-.388.536.119 7.6 1.69a1 1 0 0 0 1.158-.638l3.334-9.259 4.489-12.471a1 1 0 0 1 1.266-.607l.872.3a1 1 0 0 0 1.3-1.189l-1.6-6.392a.993.993 0 0 0 -.619-.691l1.664 6.652-2.613-.9a1 1 0 0 0 -1.266.607l-7.821 21.734a1 1 0 0 1 -1.158.638l-7.6-1.69a1 1 0 0 0 -.924.269l-4.686 4.686a1 1 0 0 1 -1.576-.211l-1.928-3.374a.977.977 0 0 0 .1.645l2.12 3.709.706 1.236a1 1 0 0 0 1.576.211l4.686-4.686z" fill="#0e92eb"/><rect fill="#fff" height="2" rx="1" width="2" x="31" y="4"/><path d="m33 14.184v-1.184h-2v1.184a3 3 0 0 0 -2 2.816v1a3 3 0 0 0 3 3 1 1 0 0 1 1 1v1a1 1 0 0 1 -2 0v-1h-2v1a3 3 0 0 0 2 2.816v1.184h2v-1.184a3 3 0 0 0 2-2.816v-1a3 3 0 0 0 -3-3 1 1 0 0 1 -1-1v-1a1 1 0 0 1 2 0v1h2v-1a3 3 0 0 0 -2-2.816z" fill="#f77f1b"/><path d="m56 51v-1a3 3 0 0 0 -3-3 1 1 0 0 1 -1-1v-1a1 1 0 0 1 2 0v1h2v-1a3 3 0 0 0 -2-2.816v-1.184h-2v1.184a3 3 0 0 0 -2 2.816v1a3 3 0 0 0 3 3 1 1 0 0 1 1 1v1a1 1 0 0 1 -2 0v-1h-2v1a3 3 0 0 0 2 2.816v1.184h2v-1.184a3 3 0 0 0 2-2.816z" fill="#f77f1b"/><rect fill="#2199ea" height="2" rx="1" width="2" x="33" y="45"/><rect fill="#2199ea" height="2" rx="1" width="2" x="33" y="49"/><g fill="#0e92eb"><path d="m5.037 38.407-.553-.35a.958.958 0 0 0 .435.773l.558.353a.961.961 0 0 0 -.44-.776z"/><path d="m30.882 42.012-.452-2a.96.96 0 0 0 -.992-.74l.35 1.551a.974.974 0 0 1 -.736 1.165l-1.417.321a.96.96 0 0 0 -.737.925 10.9 10.9 0 0 1 -.519 3.017.993.993 0 0 0 .4 1.155l.654.413a1.048 1.048 0 0 1 .044-.379 10.941 10.941 0 0 0 .519-3.017.96.96 0 0 1 .736-.925l1.418-.321a.974.974 0 0 0 .732-1.165z"/><path d="m15.309 31.178a.96.96 0 0 0 .925.736c.023 0 .045.006.068.007l-.22-.972a.961.961 0 0 0 -.992-.74z"/><path d="m24.553 32.962-.765 1.211a.993.993 0 0 0 .138 1.213 10.9 10.9 0 0 1 1.765 2.5.981.981 0 0 0 .688.519 10.871 10.871 0 0 0 -1.359-1.831.992.992 0 0 1 -.139-1.213l.766-1.211a.976.976 0 0 0 -.3-1.345l-.658-.416a.959.959 0 0 1 -.136.573z"/><path d="m6.121 47.925a.959.959 0 0 0 -1.062-.519l-1.418.32a1 1 0 0 1 -.173 0l.1.449a.974.974 0 0 0 1.165.736l1.418-.32a.906.906 0 0 1 .374 0c-.134-.219-.285-.434-.404-.666z"/><path d="m11.825 53.114-1.184 1.873a.975.975 0 0 1 -1.344.3l-1.075-.68a.952.952 0 0 0 .435.773l1.734 1.1a.975.975 0 0 0 1.344-.3l1.183-1.88 2.5-3.489a6.984 6.984 0 0 1 -1.542-.564z"/><path d="m29.081 49.36-.659-.416a.946.946 0 0 1 -.131.571l-1.091 1.735a.974.974 0 0 1 -1.344.3l-1.216-.768a.986.986 0 0 0 -1.206.138 10.92 10.92 0 0 1 -1.5 1.187l1.078 1.193a10.925 10.925 0 0 0 1.511-1.191.986.986 0 0 1 1.206-.138l1.216.768a.974.974 0 0 0 1.344-.3l1.095-1.739a.974.974 0 0 0 -.303-1.34z"/><path d="m14.5 35.948a7 7 0 0 0 -3.156 12.162 6.991 6.991 0 0 1 10.213-9.417 7 7 0 0 0 -7.057-2.745z"/></g></svg>