<?xml version="1.0" encoding="UTF-8"?>
<svg width="132px" height="104px" viewBox="0 0 132 104" version="1.1" xmlns="http://www.w3.org/2000/svg" xmlns:xlink="http://www.w3.org/1999/xlink">
    <!-- Generator: Sketch 58 (84663) - https://sketch.com -->
    <title>Puzzle-1</title>
    <desc>Created with Sketch.</desc>
    <g id="Page-1" stroke="none" stroke-width="1" fill="none" fill-rule="evenodd">
        <g id="puzzle-1" fill="#E39D33" fill-rule="nonzero">
            <path d="M24.0742759,64.6212893 C34.5689809,67.2944793 40.8949309,65.1904393 40.3448869,52.1417193 C40.8949309,39.0675493 31.8875909,37.2806593 24.0742759,40.9101093 C14.8835679,43.9698793 13.6756099,40.6484893 14.0615919,25.9346193 C13.6756099,8.96302932 21.8152339,12.8921593 35.3385459,13.4550493 C38.2293699,12.8921593 57.9280089,11.2587193 55.1499669,5.96730932 C51.2641069,0.733249325 47.3362299,-14.0000007 66.4142359,-14.0000007 C89.0289019,-14.0000007 79.7276249,2.18294932 77.6785059,7.21526932 C75.2259679,12.4822893 94.0286779,12.0966393 98.3885009,12.2070993 C109.480475,12.0219393 117.628152,9.72825932 117.162283,23.4387093 C117.628152,37.5875593 117.769081,41.4278593 107.149599,38.4141893 C95.8949739,36.1620893 91.9771629,43.5579893 92.1305739,53.3896793 C92.2831789,62.8422493 97.7773749,66.8258993 108.401185,63.3733293 C119.878981,59.7591093 120.978223,90.0938093 112.155941,89.5804293 C95.3352859,90.0938093 72.5369129,89.5515893 77.6785059,97.7663293 C82.0133439,104.626059 82.4388069,118.376819 66.4142359,117.990709 C46.8765209,118.376819 52.8612889,106.637399 55.1499669,99.9311193 C59.9258299,89.5478893 49.9242949,90.7721393 38.9649339,91.3796793 C28.5555169,90.7721393 14.0615919,96.1696593 14.0615919,79.6708293 C14.0615919,63.1719893 19.1749079,63.3733293 24.0742759,64.6212893 Z" id="Puzzle-1" transform="translate(66.000001, 52.000000) rotate(-90.000000) translate(-66.000001, -52.000000) "></path>
        </g>
    </g>
</svg>